<?xml version="1.0" standalone="no"?><!DOCTYPE svg PUBLIC "-//W3C//DTD SVG 1.1//EN" "http://www.w3.org/Graphics/SVG/1.1/DTD/svg11.dtd"><svg t="1719974771264" class="icon" viewBox="0 0 1024 1024" version="1.1" xmlns="http://www.w3.org/2000/svg" p-id="6527" xmlns:xlink="http://www.w3.org/1999/xlink" width="200" height="200"><path d="M682.666667 972.8H256C119.466667 972.8 8.533333 861.866667 8.533333 725.333333c0-110.933333 72.533333-204.8 179.2-234.666666 29.866667-128 145.066667-221.866667 281.6-221.866667 136.533333 0 251.733333 93.866667 281.6 221.866667 106.666667 29.866667 179.2 123.733333 179.2 234.666666 0 64-25.6 128-72.533333 174.933334-46.933333 46.933333-110.933333 72.533333-174.933333 72.533333zM469.333333 328.533333c-110.933333 0-200.533333 76.8-221.866666 187.733334-4.266667 12.8-12.8 25.6-25.6 29.866666-85.333333 17.066667-149.333333 89.6-149.333334 179.2 0 98.133333 81.066667 183.466667 183.466667 183.466667h426.666667c46.933333 0 93.866667-17.066667 128-51.2 34.133333-34.133333 51.2-81.066667 51.2-128 0-85.333333-64-162.133333-149.333334-179.2-12.8-4.266667-25.6-12.8-25.6-25.6-12.8-115.2-106.666667-196.266667-217.6-196.266667z" fill="#00B173" p-id="6528"></path><path d="M896 375.466667h-170.666667c-64 0-119.466667-51.2-119.466666-119.466667 0-51.2 29.866667-93.866667 76.8-110.933333 17.066667-55.466667 68.266667-93.866667 128-93.866667s110.933333 38.4 128 93.866667c42.666667 17.066667 76.8 59.733333 76.8 110.933333 0 29.866667-12.8 59.733333-34.133334 81.066667-25.6 25.6-55.466667 38.4-85.333333 38.4z m-85.333333-260.266667c-34.133333 0-64 25.6-68.266667 59.733333-4.266667 12.8-12.8 25.6-25.6 29.866667-25.6 4.266667-42.666667 25.6-42.666667 51.2 0 29.866667 25.6 51.2 55.466667 51.2h170.666667c12.8 0 25.6-4.266667 38.4-17.066667 8.533333-8.533333 17.066667-21.333333 17.066666-38.4 0-25.6-17.066667-46.933333-42.666666-51.2-12.8-4.266667-25.6-12.8-25.6-25.6-12.8-34.133333-42.666667-59.733333-76.8-59.733333z" fill="#00B173" p-id="6529"></path></svg>