<svg t="1724835787350" class="icon" viewBox="0 0 1024 1024" version="1.1" xmlns="http://www.w3.org/2000/svg" p-id="11113" width="200" height="200"><path d="M953.934409 722.015541L739.203231 507.283146l196.182437-196.182437c12.467187-12.467187 19.704237-28.777916 20.378073-45.926684 0.700595-17.756923-5.646115-34.265911-17.868824-46.48862L802.523161 83.312433c-11.558603-11.558603-27.152925-17.919909-43.908824-17.919909-17.848146 0-35.527226 7.445039-48.50648 20.423077l-80.66574 80.666956h-0.001216-0.001216l-115.520346 115.521562L299.193025 67.272941C287.179522 55.265519 271.216658 48.652437 254.236957 48.652437c-16.984566 0-32.948646 6.613082-44.954851 18.620504L67.369029 209.186017c-12.006205 12.008638-18.619288 27.970286-18.619287 44.954852 0 16.9797 6.613082 32.941349 18.619287 44.949986l214.732395 214.731179L118.603694 677.32098c-0.065681 0.065681-0.119198 0.137443-0.183663 0.203124-0.279752 0.287049-0.544907 0.589911-0.80763 0.893989-0.177581 0.205557-0.362461 0.407464-0.530312 0.619102-0.244478 0.30651-0.470712 0.627616-0.696946 0.947506-0.161769 0.228666-0.330837 0.4549-0.482875 0.688432-0.198259 0.30651-0.377056 0.627616-0.558287 0.94629-0.152039 0.263939-0.308943 0.52423-0.447603 0.793035-0.153255 0.297996-0.285833 0.608155-0.425708 0.915882-0.137443 0.305294-0.280968 0.606939-0.402599 0.915882-0.113117 0.285833-0.205557 0.582613-0.306511 0.875744-0.117982 0.345432-0.238397 0.688432-0.336918 1.038729-0.07906 0.280968-0.141092 0.569234-0.207989 0.855067-0.087574 0.372191-0.175149 0.743166-0.242046 1.119006-0.017028 0.094872-0.045004 0.184879-0.060815 0.280968L74.338491 923.498661c-0.008514 0.052301-0.00973 0.103386-0.018245 0.155688-0.06933 0.443953-0.111901 0.895205-0.152039 1.346456-0.021894 0.244478-0.052301 0.490173-0.065681 0.734652-0.018245 0.349081-0.012163 0.701811-0.012163 1.053325 0 0.35273-0.006082 0.704244 0.010947 1.053326 0.013379 0.246911 0.045004 0.495039 0.066897 0.743166 0.040138 0.446386 0.081493 0.892772 0.150823 1.334293 0.008514 0.054734 0.00973 0.108252 0.018244 0.162985 0.034057 0.211638 0.090007 0.413546 0.131362 0.622752 0.070546 0.360028 0.136227 0.720056 0.22745 1.074002 0.083925 0.336918 0.190961 0.664106 0.291915 0.99251 0.080277 0.262723 0.150823 0.529095 0.242046 0.786953a20.200492 20.200492 0 0 0 2.640611 5.065935c0.040138 0.05595 0.085142 0.108252 0.126496 0.164202 0.325971 0.44517 0.665322 0.87696 1.024134 1.291722 0.113117 0.130145 0.233532 0.254209 0.350297 0.380705 0.29678 0.327188 0.598425 0.645861 0.914666 0.951156 0.169067 0.162986 0.344216 0.317457 0.518149 0.475577a19.981556 19.981556 0 0 0 1.497278 1.227258c0.284617 0.210422 0.574099 0.413546 0.869663 0.609372 0.228666 0.152039 0.458549 0.302861 0.694513 0.445169 0.31989 0.19461 0.645861 0.374624 0.976698 0.549773 0.21772 0.116766 0.43179 0.235964 0.655591 0.345432 0.441521 0.216503 0.893989 0.409897 1.351322 0.59356 0.119198 0.047436 0.233532 0.103386 0.355163 0.149606 1.2528 0.476794 2.559118 0.827091 3.903141 1.047244l0.020678 0.004865c0.049869 0.008514 0.099737 0.010947 0.149606 0.019461 0.490173 0.076628 0.982779 0.143525 1.481467 0.183663 0.260291 0.021894 0.523014 0.024326 0.78452 0.035273 0.285833 0.012163 0.568017 0.037706 0.856283 0.037706l0.02311-0.001217 0.02311 0.001217c0.180014 0 0.356379-0.019461 0.535177-0.024326 0.37584-0.010947 0.752896-0.019461 1.12752-0.051086 0.482875-0.040138 0.959669-0.107035 1.435247-0.180014 0.057167-0.008514 0.11555-0.012163 0.172716-0.021893l0.059599-0.009731c0.132578-0.02311 0.266372-0.040138 0.39895-0.06568l234.620295-38.497457c0.086358-0.014596 0.167851-0.038922 0.252993-0.054734 0.442737-0.077844 0.880609-0.177581 1.316048-0.284617 0.228666-0.05595 0.459766-0.108252 0.685999-0.1715 0.406248-0.11555 0.805198-0.25056 1.201716-0.390436 0.246911-0.086358 0.495039-0.167851 0.735868-0.263939 0.356379-0.139876 0.704244-0.300429 1.052109-0.462198 0.263939-0.122847 0.531528-0.239613 0.788169-0.373408 0.313808-0.161769 0.619102-0.341783 0.924396-0.521797 0.271237-0.15812 0.543691-0.312592 0.805198-0.481659 0.282184-0.18123 0.552205-0.380705 0.825875-0.578964 0.266372-0.192177 0.53396-0.380705 0.790602-0.585046 0.249344-0.199475 0.487741-0.413546 0.728571-0.625184 0.261507-0.229883 0.523014-0.458549 0.772357-0.700595 0.06933-0.068113 0.144741-0.126496 0.212855-0.193393l163.498946-163.498947 73.900619 73.901836 0.008514 0.008514 0.008514 0.008514 140.812315 140.811099c12.007421 12.007421 27.976367 18.620504 44.954852 18.620504 16.980917 0 32.948646-6.613082 44.956068-18.620504l141.908211-141.913077c12.012287-12.002556 18.625369-27.970286 18.625369-44.949986-0.007298-16.9797-6.62038-32.942565-18.627802-44.951203zM738.882125 114.588652c5.410151-5.405286 12.599765-8.508095 19.733428-8.508095 5.886945 0 11.267904 2.12976 15.135773 6.003711l135.366891 135.371756c4.107482 4.108698 6.233593 9.831441 5.987899 16.112471-0.271237 6.892834-3.285256 13.55092-8.491067 18.751865l-66.28043 66.281647-167.734142-167.730492 66.281648-66.282863zM251.353084 425.528808l93.685132-93.688781c7.944943-7.944943 7.944943-20.826892 0-28.773052-7.946159-7.946159-20.828108-7.946159-28.773051 0l-93.686348 93.687565-44.366157-44.366157 93.683916-93.689997c7.946159-7.944943 7.946159-20.828108 0-28.773051-7.944943-7.944943-20.826892-7.944943-28.771835 0l-93.685133 93.689997-53.297528-53.297528a22.746231 22.746231 0 0 1-6.698224-16.176935 22.747447 22.747447 0 0 1 6.698224-16.181801L238.055157 96.045992a22.748663 22.748663 0 0 1 16.1818-6.699441 22.727986 22.727986 0 0 1 16.176936 6.699441l214.731178 214.732395-174.270596 174.271812-59.521391-59.521391z m73.905484 102.688265l0.004865-0.004865 203.04608-203.044863 0.029192-0.03284 115.488721-115.489939 167.730492 167.734141L329.498628 859.441647 161.765703 691.711155l163.492865-163.494082zM146.648175 734.139728l140.41823 140.420664-167.982268 27.564038 27.564038-167.984702z m778.508318 49.010033L783.243417 925.061621a22.724337 22.724337 0 0 1-16.178152 6.703089 22.720688 22.720688 0 0 1-16.1818-6.703089l-53.291447-53.292663 93.683916-93.6827c7.944943-7.946159 7.944943-20.828108 0-28.774267-7.946159-7.943727-20.828108-7.943727-28.773051 0l-93.6827 93.683916-44.367373-44.36859 93.686348-93.6827c7.941294-7.946159 7.946159-20.828108 0-28.771834-7.944943-7.946159-20.832973-7.946159-28.7767 0l-93.682699 93.681483-59.522608-59.523824 174.271812-174.273028 214.726314 214.73726a22.747447 22.747447 0 0 1 6.704306 16.178151 22.749879 22.749879 0 0 1-6.70309 16.176936z" p-id="11114" fill="#1296db"></path></svg>