<svg t="1724913817742" class="icon" viewBox="0 0 1024 1024" version="1.1" xmlns="http://www.w3.org/2000/svg" p-id="6946" width="200" height="200"><path d="M791.1 338.86c-48.21 0-91.63 20.1-122.54 52.41l-124.55-77.19c0-0.01 0.01-0.03 0.01-0.04l3.6-10.34c5.49-17.46 8.4-36.02 8.4-55.28-0.1-101.94-82.73-184.56-184.66-184.56-101.93 0-184.56 82.62-184.56 184.56 0 54.11 23.31 102.83 60.42 136.54L167.2 516.42c4.92 0.74 9.71 1.87 14.34 3.36l-7.06-1.92-7.28-1.35c-4.21-0.6-8.5-0.9-12.81-0.9-49.31 0-89.23 39.91-89.23 89.23 0 49.31 39.92 89.23 89.23 89.23 17.6 0 33.96-5.06 47.76-13.82l5.75-3.98L400.08 787.7l-2.04 8.65c-1.76 8.74-2.66 17.76-2.66 27.07 0 75.23 60.92 136.14 136.15 136.14s136.14-60.92 136.14-136.14l-0.28-8.81c-1.67-26.21-10.73-50.35-25.23-70.52l-2.9-3.78-1.27-1.64-0.67-0.9 0.76 0.92 4.09 5.4 70.52-85.53 8.93 4.36c21.18 9.56 44.73 14.85 69.5 14.85 93.63 0 169.45-75.83 169.45-169.45-0.01-93.64-75.83-169.46-169.47-169.46zM223.02 661.88l-4.43 4.88-0.12 0.17-0.01 0.01-0.1 0.13-2.2 2.05 2.3-2.18 0.13-0.18 4.59-5.16-0.16 0.28z m4.25-5.55l-0.61 0.74 0.86-1.16-0.25 0.42z m4.1-6.38l-0.23 0.33 0.52-0.93-0.29 0.6z m3.06-5.67l-0.34 0.54 0.64-1.2-0.3 0.66z m2.87-6.46l-0.78 1.74 0.97-2.24-0.19 0.5z m2.37-6.72l-1.09 3.04 1.16-3.4-0.07 0.36z m2.06-8.04l-0.13 0.4-0.11 0.69-1.16 4.39 1.27-5.08 0.49-2.76-0.36 2.36z m368.65 89.38l-3.1-2.09-4.82-3.14-6.95-4 0.62 0.33 6.33 3.67 1.35 0.81 3.47 2.33 1.97 1.29v-0.03l1.13 0.83 0.78 0.53 4.49 3.47-5.27-4z m13.74 11.21l-7.25-6.28 1.27 1.01 5.98 5.27 0.64 0.57 6.16 6.21-6.8-6.78z m9.63 9.86l3.01 3.56 0.03 0.03 0.48 0.63-3.52-4.22z m-45.61-33.94l-7.49-3.17c-15.22-5.9-31.8-9.13-49.12-9.13-37.61 0-71.62 15.2-96.33 39.91L242.93 615.75l-0.08 0.62-0.08 0.62-0.57 2.99 0.73-4.24 0.5-5.41 0.2-5.49c0-19.31-6.2-37.21-16.6-51.92l79.99-131.49 0.14 0.05c20.01 7.4 41.71 11.5 64.32 11.5 53.6 0 101.9-22.89 135.61-59.38l124.57 77.19-3 9.11c-4.57 15.36-7.01 31.57-7.01 48.41 0 36.68 11.6 70.58 31.41 98.32l5.6 7.41-70.52 85.53z m91.75-63.39l-0.41-0.36 1.43 1.2-1.02-0.84z" fill="#d4237a" p-id="6947"></path></svg>